<svg t="1723737862514" class="icon" viewBox="0 0 1024 1024" version="1.1" xmlns="http://www.w3.org/2000/svg" p-id="19733" width="32" height="32"><path d="M96 160h832c17.5 0 31.7 14 32 31.5V832c0 17.5-14 31.7-31.5 32H96c-17.5 0-31.7-14-32-31.5V192c0-17.5 14-31.7 31.5-32H928 96z m792 72H136v560h752V232z m-375.8 78.5c110.5 0 200 89.5 200 200s-89.5 200-200 200-200-89.5-200-200 89.5-200 200-200z m0 72c-70.7 0-128 57.3-128 128s57.3 128 128 128 128-57.3 128-128-57.3-128-128-128z m314.6-98c4.4 0 8 3.6 8 8v56c0 4.4-3.6 8-8 8h-72c-4.4 0-8-3.6-8-8v-56c0-4.4 3.6-8 8-8h72z" p-id="19734" fill="#ffffff"></path></svg>