<svg t="1723454865092" class="icon" viewBox="0 0 1073 1024" version="1.1" xmlns="http://www.w3.org/2000/svg" p-id="7700" width="256" height="256"><path d="M407.102439 691.82439V414.595122H374.634146c-9.990244 9.990244-19.980488 19.980488-34.965853 27.473171-14.985366 7.492683-27.473171 12.487805-39.960976 17.482927v42.458536c24.97561-7.492683 47.453659-19.980488 62.439024-34.965854v227.278049h44.956098zM497.014634 691.82439c7.492683 0 14.985366-2.497561 19.980488-7.492683 4.995122-4.995122 7.492683-12.487805 7.492683-19.980487 0-7.492683-2.497561-14.985366-7.492683-19.980488-4.995122-4.995122-12.487805-7.492683-19.980488-7.492683-7.492683 0-14.985366 2.497561-19.980488 7.492683-4.995122 4.995122-7.492683 12.487805-7.492683 19.980488 0 7.492683 2.497561 14.985366 7.492683 19.980487s9.990244 7.492683 19.980488 7.492683zM666.84878 409.6c-32.468293 0-57.443902 12.487805-74.926829 39.960976-17.482927 24.97561-24.97561 59.941463-24.97561 102.4 0 42.458537 7.492683 77.42439 24.97561 102.4 17.482927 27.473171 42.458537 39.960976 74.926829 39.960975s57.443902-14.985366 74.92683-39.960975c17.482927-24.97561 24.97561-59.941463 24.97561-102.4 0-42.458537-7.492683-77.42439-24.97561-102.4-17.482927-27.473171-42.458537-39.960976-74.92683-39.960976z m47.453659 214.790244c-9.990244 24.97561-24.97561 37.463415-47.453659 37.463415-22.478049 0-39.960976-12.487805-47.453658-37.463415-7.492683-17.482927-9.990244-39.960976-9.990244-69.931707 0-29.970732 2.497561-52.44878 9.990244-69.931708 9.990244-24.97561 24.97561-37.463415 47.453658-37.463414 22.478049 0 39.960976 12.487805 47.453659 37.463414 4.995122 14.985366 9.990244 39.960976 9.990244 69.931708 0 29.970732-4.995122 52.44878-9.990244 69.931707zM599.414634 207.297561l117.385366-72.429268c4.995122-2.497561 7.492683-4.995122 9.990244-9.990244 7.492683-12.487805 4.995122-29.970732-7.492683-37.463415L599.414634 14.985366c-4.995122-2.497561-9.990244-4.995122-14.985366-4.995122-14.985366 0-27.473171 12.487805-27.47317 27.473171v147.356097c0 4.995122 2.497561 9.990244 4.995122 14.985366 9.990244 12.487805 24.97561 14.985366 37.463414 7.492683zM844.17561 207.297561l117.385366-72.429268c2.497561-2.497561 7.492683-4.995122 7.492683-7.492683 7.492683-12.487805 4.995122-29.970732-7.492683-37.463415L844.17561 17.482927c-4.995122-2.497561-9.990244-4.995122-14.985366-4.995122-14.985366 0-27.473171 12.487805-27.473171 27.473171v147.356097c0 4.995122 2.497561 9.990244 4.995122 14.985366 7.492683 9.990244 24.97561 12.487805 37.463415 4.995122z" fill="#ffffff" p-id="7701"></path><path d="M1016.507317 319.687805c-27.473171 0-49.95122 22.478049-49.951219 49.951219v539.473171H99.902439v-749.268293h307.2c27.473171 0 49.95122-22.478049 49.95122-49.951219s-22.478049-49.95122-49.95122-49.95122H74.926829c-39.960976 0-74.926829 32.468293-74.926829 74.92683v801.717073c0 39.960976 32.468293 74.926829 74.926829 74.926829h919.102439c39.960976 0 74.926829-32.468293 74.92683-74.926829V369.639024c-2.497561-27.473171-24.97561-49.95122-52.448781-49.951219z" fill="#ffffff" p-id="7702"></path></svg>