<svg t="1723708444343" class="icon" viewBox="0 0 1024 1024" version="1.1" xmlns="http://www.w3.org/2000/svg" p-id="4590" width="256" height="256"><path d="M910.222222 56.888889H113.777778c-62.577778 0-113.777778 51.2-113.777778 113.777778v682.666666c0 62.577778 51.2 113.777778 113.777778 113.777778h796.444444c62.577778 0 113.777778-51.2 113.777778-113.777778v-682.666666c0-62.577778-51.2-113.777778-113.777778-113.777778zM455.111111 682.666667h-85.333333v-113.777778h-113.777778v113.777778H170.666667V341.333333h85.333333v142.222223h113.777778V341.333333H455.111111v341.333334z m398.222222-56.888889c0 34.133333-22.755556 56.888889-56.888889 56.888889h-45.511111v85.333333h-85.333333V682.666667H625.777778c-34.133333 0-56.888889-22.755556-56.888889-56.888889v-227.555556c0-34.133333 22.755556-56.888889 56.888889-56.888889H796.444444c34.133333 0 56.888889 22.755556 56.888889 56.888889v227.555556z m-199.111111-28.444445h113.777778v-170.666666h-113.777778v170.666666z" p-id="4591" fill="#ffffff"></path></svg>