<?xml version="1.0" standalone="no"?><!DOCTYPE svg PUBLIC "-//W3C//DTD SVG 1.1//EN" "http://www.w3.org/Graphics/SVG/1.1/DTD/svg11.dtd"><svg t="1723454570299" class="icon" viewBox="0 0 1024 1024" version="1.1" xmlns="http://www.w3.org/2000/svg" p-id="5626" xmlns:xlink="http://www.w3.org/1999/xlink" width="256" height="256"><path d="M563.2 409.6H51.2c-30.72 0-51.2 20.48-51.2 51.2v409.6c0 30.72 20.48 51.2 51.2 51.2h512c30.72 0 51.2-20.48 51.2-51.2V460.8c0-30.72-20.48-51.2-51.2-51.2z m0 460.8H51.2V460.8h512v409.6z" p-id="5627" fill="#ffffff"></path><path d="M742.4 921.6H972.8c30.72 0 51.2-20.48 51.2-51.2V153.6c0-30.72-20.48-51.2-51.2-51.2H51.2c-30.72 0-51.2 20.48-51.2 51.2v128c0 15.36 10.24 25.6 25.6 25.6s25.6-10.24 25.6-25.6V153.6h921.6v716.8h-230.4c-15.36 0-25.6 10.24-25.6 25.6s10.24 25.6 25.6 25.6" p-id="5628" fill="#ffffff"></path></svg>