<svg t="1723454793817" class="icon" viewBox="0 0 1024 1024" version="1.1" xmlns="http://www.w3.org/2000/svg" p-id="6673" width="256" height="256"><path d="M955.74528 51.2H68.44928A73.216 73.216 0 0 0 0.09728 128v768a73.216 73.216 0 0 0 68.352 76.8h887.296A73.216 73.216 0 0 0 1024.09728 896V128a73.216 73.216 0 0 0-68.352-76.8zM51.29728 896V128h896v768z m16.896 0" p-id="6674" fill="#ffffff"></path><path d="M296.03328 702.464h39.68a119.808 119.808 0 0 0 85.504-35.584 122.624 122.624 0 0 0 36.096-86.016 39.168 39.168 0 0 0-78.592 0 46.336 46.336 0 0 1-12.544 30.976 41.984 41.984 0 0 1-29.952 12.544h-39.68a51.2 51.2 0 0 1-31.488-12.544 46.336 46.336 0 0 1-12.544-30.976v-166.4a45.824 45.824 0 0 1 12.544-30.464 47.616 47.616 0 0 1 31.488-12.544h39.68a40.192 40.192 0 0 1 29.952 12.544 47.104 47.104 0 0 1 11.52 30.464 39.168 39.168 0 0 0 78.592 0 119.552 119.552 0 0 0-119.808-119.808h-39.936a121.088 121.088 0 0 0-86.016 35.584 122.88 122.88 0 0 0-35.584 87.296v166.4a121.088 121.088 0 0 0 35.328 86.272 118.016 118.016 0 0 0 85.504 33.792zM671.84128 702.464h39.68a119.808 119.808 0 0 0 85.504-35.584 122.624 122.624 0 0 0 36.096-86.016 39.168 39.168 0 0 0-78.592 0A46.336 46.336 0 0 1 742.49728 611.84a41.984 41.984 0 0 1-29.952 12.544h-39.936A51.2 51.2 0 0 1 640.09728 611.84a46.336 46.336 0 0 1-12.544-30.976v-166.4A45.824 45.824 0 0 1 640.09728 384a47.616 47.616 0 0 1 31.488-12.544h39.68A40.192 40.192 0 0 1 742.49728 384a47.104 47.104 0 0 1 11.52 30.464 39.168 39.168 0 0 0 78.592 0 119.552 119.552 0 0 0-119.808-119.808h-40.192a121.088 121.088 0 0 0-86.016 35.584 122.88 122.88 0 0 0-35.584 87.296v166.4a121.088 121.088 0 0 0 35.328 86.272 118.016 118.016 0 0 0 85.504 33.792z" p-id="6675" fill="#ffffff"></path></svg>