<svg t="1728375898661" class="icon" viewBox="0 0 1024 1024" version="1.1" xmlns="http://www.w3.org/2000/svg" p-id="4331" width="64" height="64"><path d="M512 515.008m-119.744 0a119.744 119.744 0 1 0 239.488 0 119.744 119.744 0 1 0-239.488 0Z" p-id="4332" fill="#ffffff"></path><path d="M512 68.032a447.488 447.488 0 0 0-446.976 446.976A447.424 447.424 0 0 0 512 961.984a447.424 447.424 0 0 0 446.976-446.976A447.424 447.424 0 0 0 512 68.032z m0 829.952c-211.2 0-382.976-171.84-382.976-382.976S300.8 132.032 512 132.032s382.976 171.84 382.976 382.976S723.2 897.984 512 897.984z" p-id="4333" fill="#ffffff"></path></svg>